<svg xmlns:xlink="http://www.w3.org/1999/xlink" viewBox="0 0 564.3 181.41"
    xmlns="http://www.w3.org/2000/svg">
    <defs>
        <symbol id="A" viewBox="0 0 173.06 181.41">
            <path
                d="M31.91 2.6L0 57.88h63.82L31.91 2.6zM100.24 0H36.41l31.91 55.28L100.24 0zm36.41 57.88l-26.97-46.72-4.94-8.56-23.62 40.9-8.3 14.38h63.83zM173.06 0h-63.83l31.92 55.28L173.06 0zm-72.82 120.94L68.32 65.67l-31.91 55.27h63.83zM72.82 63.07l31.92 55.27 31.91-55.27H72.82zm27.42 63.06H36.41l31.91 55.28 31.92-55.28z"
                fill="#e73937" />
        </symbol>
        <symbol id="B" viewBox="0 0 564.3 181.41">
            <use height="181.41" width="173.06" xlink:href="#A" />
            <use height="125.04" width="354.24" x="210.06" y="41.22" xlink:href="#C" />
        </symbol>
        <symbol id="C" viewBox="0 0 354.24 125.04">
            <path
                d="M63.7.97h-9.08H0v17.72h44.39L.05 95.48h20.47L75.08.97H63.7zm61.96 49.42c-2.54-2.22-5.59-4.23-9.15-6.05s-7.54-3.66-11.93-5.51l-5.63-2.36c-1.7-.74-3.16-1.52-4.38-2.36-1.21-.83-2.14-1.81-2.78-2.93s-.97-2.45-.97-4.01c0-1.93.49-3.68 1.48-5.26.98-1.57 2.42-2.83 4.29-3.78 1.88-.95 4.16-1.42 6.85-1.42a25.15 25.15 0 0 1 7.08 1.02 32.2 32.2 0 0 1 6.59 2.73c2.06 1.14 3.91 2.39 5.54 3.75l7.67-14.44c-2.05-1.74-4.56-3.35-7.53-4.83s-6.17-2.67-9.58-3.58S106.39 0 102.98 0c-4.51 0-8.61.76-12.3 2.27-3.69 1.52-6.88 3.56-9.55 6.14s-4.73 5.51-6.17 8.81a25.56 25.56 0 0 0-2.16 10.34c0 3.03.52 5.77 1.56 8.21s2.45 4.63 4.23 6.56 3.82 3.63 6.11 5.09 4.71 2.76 7.25 3.89l9.12 4.06c2.67 1.23 4.93 2.48 6.76 3.75 1.84 1.27 3.24 2.7 4.21 4.29s1.45 3.49 1.45 5.68c0 2.46-.6 4.53-1.79 6.19-1.19 1.67-2.8 2.91-4.83 3.72-2.03.82-4.37 1.22-7.02 1.22-2.84 0-5.52-.4-8.04-1.19-2.52-.8-4.86-1.82-7.02-3.07s-4.11-2.56-5.85-3.92-3.24-2.59-4.49-3.69L65.02 83.6c1.21 1.17 2.86 2.54 4.94 4.09s4.58 3.07 7.47 4.55c2.9 1.48 6.18 2.69 9.86 3.64 3.67.95 7.67 1.42 11.99 1.42 6.86 0 12.84-1.13 17.96-3.38 5.11-2.25 9.1-5.52 11.96-9.8s4.29-9.41 4.29-15.4c0-4.13-.67-7.66-2.02-10.6-1.33-2.94-3.27-5.52-5.81-7.73zm68.68-10.89c-4.38-2.69-9.35-4.03-14.92-4.03-4.05 0-7.82.78-11.31 2.33s-6.4 3.75-8.75 6.59v-7.1h-17.5v87.75h17.5V87.81c2.61 3.03 5.67 5.37 9.18 7.02 3.5 1.65 7.26 2.47 11.28 2.47 5.46 0 10.34-1.36 14.66-4.06 4.32-2.71 7.73-6.39 10.23-11.05s3.75-9.93 3.75-15.8-1.26-11.2-3.78-15.86-5.97-8.34-10.34-11.03zm-6.23 35.24c-1.33 2.43-3.16 4.32-5.51 5.68s-5.04 2.05-8.07 2.05-5.66-.68-8.01-2.05c-2.35-1.36-4.2-3.26-5.54-5.68-1.35-2.42-2.02-5.19-2.02-8.3s.67-5.92 2.02-8.33a14.97 14.97 0 0 1 5.57-5.71c2.37-1.4 5.05-2.1 8.04-2.1s5.64.7 7.96 2.1c2.31 1.4 4.15 3.32 5.51 5.74 1.36 2.43 2.05 5.19 2.05 8.3s-.67 5.87-2 8.3zm77.63-30.35c-2.27-2.8-5.2-4.99-8.78-6.56s-7.44-2.36-11.57-2.36c-5.57 0-10.52 1.36-14.86 4.06-4.34 2.71-7.75 6.38-10.23 11.03-2.48 4.64-3.72 9.9-3.72 15.77s1.28 11.26 3.84 15.94 6.02 8.35 10.4 11.03c4.38 2.67 9.24 4.01 14.58 4.01 4.01 0 7.75-.82 11.2-2.47s6.5-3.99 9.15-7.02v7.67h17.45v-58.2h-17.45v7.1h-.01zm-1.62 30.29c-1.35 2.43-3.18 4.33-5.51 5.71s-5.01 2.07-8.04 2.07-5.67-.7-8.04-2.1-4.22-3.32-5.57-5.74-2.02-5.17-2.02-8.24.68-5.87 2.05-8.3c1.36-2.42 3.22-4.33 5.57-5.71s5.02-2.07 8.01-2.07 5.71.69 8.04 2.07 4.17 3.29 5.51 5.71c1.35 2.43 2.02 5.19 2.02 8.3s-.67 5.88-2.02 8.3zm87.21-28.19c-1.93-3.49-4.6-6.19-8.01-8.13-3.41-1.93-7.33-2.9-11.76-2.9-4.05 0-7.77.77-11.14 2.3s-6.16 3.51-8.35 5.94v-6.42h-17.5v58.2h17.5V61.04c0-2.27.51-4.31 1.53-6.11s2.46-3.22 4.32-4.26 4.07-1.56 6.65-1.56c3.79 0 6.77 1.17 8.95 3.5s3.27 5.58 3.27 9.75v33.13h17.45V58.65c-.01-4.62-.98-8.67-2.91-12.16z" />
        </symbol>
    </defs>
    <use height="181.41" width="564.3" xlink:href="#B" />
</svg>